<?xml version="1.0" encoding="UTF-8"?>
<!DOCTYPE svg PUBLIC "-//W3C//DTD SVG 1.1//EN" "http://www.w3.org/Graphics/SVG/1.1/DTD/svg11.dtd">
<svg xmlns="http://www.w3.org/2000/svg" version="1.1" width="460px" height="140px" style="shape-rendering:geometricPrecision; text-rendering:geometricPrecision; image-rendering:optimizeQuality; fill-rule:evenodd; clip-rule:evenodd" xmlns:xlink="http://www.w3.org/1999/xlink">
<g><path style="opacity:0.463" fill="#fdf3ef" d="M 456.5,-0.5 C 457.5,-0.5 458.5,-0.5 459.5,-0.5C 459.5,7.16667 459.5,14.8333 459.5,22.5C 458.732,21.7375 458.232,20.7375 458,19.5C 457.289,12.8444 456.789,6.1777 456.5,-0.5 Z"/></g>
<g><path style="opacity:1" fill="#5572fd" d="M 205.5,19.5 C 208.833,18.1667 211.167,15.8333 212.5,12.5C 215.764,10.9059 218.431,8.57253 220.5,5.5C 236.344,-2.03736 249.01,1.62931 258.5,16.5C 262.175,27.9222 260.675,38.5889 254,48.5C 245.969,56.1968 238.302,64.1968 231,72.5C 229.742,82.4268 229.076,92.4268 229,102.5C 222.695,122.237 209.529,129.237 189.5,123.5C 189.027,122.094 188.027,121.427 186.5,121.5C 180.727,118.549 176.894,113.882 175,107.5C 173.97,95.8389 172.97,84.1722 172,72.5C 163.929,64.932 156.429,56.932 149.5,48.5C 149.5,47.8333 149.167,47.5 148.5,47.5C 142.787,39.6573 141.12,30.9906 143.5,21.5C 151.298,1.61182 164.965,-3.55485 184.5,6C 190.031,11.866 195.865,17.366 202,22.5C 203.039,21.2899 204.206,20.2899 205.5,19.5 Z"/></g>
<g><path style="opacity:1" fill="#5472fd" d="M 346.5,10.5 C 346.427,12.0269 347.094,13.0269 348.5,13.5C 348.427,15.0269 349.094,16.0269 350.5,16.5C 361.655,40.1449 372.822,63.8116 384,87.5C 388.521,101.191 385.354,112.691 374.5,122C 365.508,126.833 356.175,127.666 346.5,124.5C 340.364,121.033 336.03,116.033 333.5,109.5C 329.479,99.1246 324.646,89.1246 319,79.5C 319.119,85.7194 319.952,91.886 321.5,98C 316.781,121.18 302.781,130.013 279.5,124.5C 278.738,122.738 277.404,121.738 275.5,121.5C 266.389,114.011 262.889,104.344 265,92.5C 277.06,66.0462 289.393,39.7128 302,13.5C 312.58,0.808114 325.413,-2.02522 340.5,5C 342.996,6.33105 344.996,8.16438 346.5,10.5 Z"/></g>
<g><path style="opacity:1" fill="#5371fd" d="M 443.5,16.5 C 443.523,18.9267 444.023,21.26 445,23.5C 445.845,51.8501 445.512,80.1834 444,108.5C 435.724,123.764 423.224,128.764 406.5,123.5C 406.027,122.094 405.027,121.427 403.5,121.5C 402.833,121.5 402.5,121.167 402.5,120.5C 402.027,119.094 401.027,118.427 399.5,118.5C 398.5,118.167 397.833,117.5 397.5,116.5C 393.405,109.971 391.072,102.805 390.5,95C 391.454,71.8481 391.787,48.6815 391.5,25.5C 391.736,19.4297 394.07,14.4297 398.5,10.5C 400.404,10.2624 401.738,9.26242 402.5,7.5C 413.836,0.712784 425.169,0.87945 436.5,8C 439.447,10.4356 441.78,13.2689 443.5,16.5 Z"/></g>
<g><path style="opacity:1" fill="#5472fd" d="M 47.5,9.5 C 47.427,11.0269 48.0937,12.0269 49.5,12.5C 50.8333,13.1667 51.8333,14.1667 52.5,15.5C 52.7376,17.4044 53.7376,18.7377 55.5,19.5C 56.1667,19.5 56.5,19.8333 56.5,20.5C 60.4055,26.5796 64.9055,32.2463 70,37.5C 70.7172,36.9558 71.2172,36.2891 71.5,35.5C 73.6885,31.7929 76.3552,28.4595 79.5,25.5C 80.9063,25.0269 81.573,24.0269 81.5,22.5C 82.1667,21.1667 83.1667,20.1667 84.5,19.5C 86.2624,18.7377 87.2624,17.4044 87.5,15.5C 88.1667,14.1667 89.1667,13.1667 90.5,12.5C 91.9063,12.0269 92.573,11.0269 92.5,9.5C 104.744,1.19133 116.744,1.52467 128.5,10.5C 128.738,12.4044 129.738,13.7377 131.5,14.5C 132.167,14.5 132.5,14.8333 132.5,15.5C 132.738,17.4044 133.738,18.7377 135.5,19.5C 135.838,21.854 136.338,24.1873 137,26.5C 137.167,39.3333 137.333,52.1667 137.5,65C 137.641,78.899 137.141,92.7323 136,106.5C 128.253,124.931 114.753,130.931 95.5,124.5C 95.0269,123.094 94.0269,122.427 92.5,122.5C 89.5293,120.557 87.5293,117.891 86.5,114.5C 84.7069,111.741 84.2069,108.741 85,105.5C 90.5,98 96,90.5 101.5,83C 101,82.5 100.5,82 100,81.5C 93.4619,89.7055 85.9619,96.8722 77.5,103C 71.2833,105.14 65.2833,104.64 59.5,101.5C 58.391,101.443 57.391,101.11 56.5,100.5C 50.4627,94.6296 44.9627,88.2963 40,81.5C 39.5,82 39,82.5 38.5,83C 44.3891,90.5565 49.8891,98.3898 55,106.5C 54.1421,117.34 48.3088,123.84 37.5,126C 30.3862,126.825 23.3862,126.325 16.5,124.5C 15.8333,124.5 15.5,124.167 15.5,123.5C 15.0269,122.094 14.0269,121.427 12.5,121.5C 6.70468,116.919 3.20468,110.919 2,103.5C 1.33333,77.5 1.33333,51.5 2,25.5C 7.7693,8.40871 19.6026,1.24205 37.5,4C 41.0211,5.59175 44.3544,7.42509 47.5,9.5 Z"/></g>
<g><path style="opacity:0.929" fill="#9ea1f6" d="M 220.5,5.5 C 218.431,8.57253 215.764,10.9059 212.5,12.5C 214.569,9.42747 217.236,7.09413 220.5,5.5 Z"/></g>
<g><path style="opacity:0.812" fill="#aaacf5" d="M 402.5,7.5 C 401.738,9.26242 400.404,10.2624 398.5,10.5C 399.262,8.73758 400.596,7.73758 402.5,7.5 Z"/></g>
<g><path style="opacity:0.843" fill="#aeaef4" d="M 47.5,9.5 C 48.9063,9.97306 49.573,10.9731 49.5,12.5C 48.0937,12.0269 47.427,11.0269 47.5,9.5 Z"/></g>
<g><path style="opacity:0.78" fill="#b6b6f3" d="M 92.5,9.5 C 92.573,11.0269 91.9063,12.0269 90.5,12.5C 90.427,10.9731 91.0937,9.97306 92.5,9.5 Z"/></g>
<g><path style="opacity:0.627" fill="#c2c0f1" d="M 128.5,10.5 C 130.262,11.2623 131.262,12.5956 131.5,14.5C 129.738,13.7377 128.738,12.4044 128.5,10.5 Z"/></g>
<g><path style="opacity:0.765" fill="#bdbcf2" d="M 346.5,10.5 C 347.906,10.9731 348.573,11.9731 348.5,13.5C 347.094,13.0269 346.427,12.0269 346.5,10.5 Z"/></g>
<g><path style="opacity:0.502" fill="#b8b9f3" d="M 348.5,13.5 C 349.906,13.9731 350.573,14.9731 350.5,16.5C 349.094,16.0269 348.427,15.0269 348.5,13.5 Z"/></g>
<g><path style="opacity:0.804" fill="#b8b8f3" d="M 52.5,15.5 C 54.2624,16.2623 55.2624,17.5956 55.5,19.5C 53.7376,18.7377 52.7376,17.4044 52.5,15.5 Z"/></g>
<g><path style="opacity:0.871" fill="#b2b3f4" d="M 87.5,15.5 C 87.2624,17.4044 86.2624,18.7377 84.5,19.5C 84.7376,17.5956 85.7376,16.2623 87.5,15.5 Z"/></g>
<g><path style="opacity:0.953" fill="#abacf5" d="M 132.5,15.5 C 134.262,16.2623 135.262,17.5956 135.5,19.5C 133.738,18.7377 132.738,17.4044 132.5,15.5 Z"/></g>
<g><path style="opacity:0.969" fill="#959af7" d="M 212.5,12.5 C 211.167,15.8333 208.833,18.1667 205.5,19.5C 207.5,16.8333 209.833,14.5 212.5,12.5 Z"/></g>
<g><path style="opacity:0.999" fill="#bbbef1" d="M 258.5,16.5 C 269.147,23.1475 273.314,32.8141 271,45.5C 269.527,49.7789 267.527,53.7789 265,57.5C 256.303,65.8632 247.969,74.5299 240,83.5C 239.667,93.1667 239.333,102.833 239,112.5C 231.32,134.419 216.82,140.585 195.5,131C 192.183,129.52 190.183,127.02 189.5,123.5C 209.529,129.237 222.695,122.237 229,102.5C 229.076,92.4268 229.742,82.4268 231,72.5C 238.302,64.1968 245.969,56.1968 254,48.5C 260.675,38.5889 262.175,27.9222 258.5,16.5 Z"/></g>
<g><path style="opacity:0.995" fill="#bbbef1" d="M 350.5,16.5 C 354.362,17.5237 357.195,19.8571 359,23.5C 369.058,43.6143 378.558,63.9476 387.5,84.5C 387.795,86.4233 388.628,88.0899 390,89.5C 390.5,79.172 390.666,68.8387 390.5,58.5C 390.172,47.3206 390.505,36.3206 391.5,25.5C 391.787,48.6815 391.454,71.8481 390.5,95C 391.072,102.805 393.405,109.971 397.5,116.5C 396.883,116.389 396.383,116.056 396,115.5C 388.911,133.32 376.077,139.487 357.5,134C 352.388,132.38 348.721,129.213 346.5,124.5C 356.175,127.666 365.508,126.833 374.5,122C 385.354,112.691 388.521,101.191 384,87.5C 372.822,63.8116 361.655,40.1449 350.5,16.5 Z"/></g>
<g><path style="opacity:0.998" fill="#babdf1" d="M 443.5,16.5 C 450.933,21.0157 455.1,27.6824 456,36.5C 456.667,57.5 456.667,78.5 456,99.5C 456.546,127.969 443.046,139.136 415.5,133C 410.921,131.256 407.921,128.09 406.5,123.5C 423.224,128.764 435.724,123.764 444,108.5C 445.512,80.1834 445.845,51.8501 445,23.5C 444.023,21.26 443.523,18.9267 443.5,16.5 Z"/></g>
<g><path style="opacity:0.997" fill="#bbbef1" d="M 135.5,19.5 C 137.757,19.9617 139.757,20.9617 141.5,22.5C 142.183,22.1373 142.85,21.8039 143.5,21.5C 141.12,30.9906 142.787,39.6573 148.5,47.5C 147.513,52.3054 147.179,57.3054 147.5,62.5C 147.888,81.2005 147.388,99.8671 146,118.5C 136.293,136.611 122.126,141.444 103.5,133C 100.034,130.886 97.3671,128.052 95.5,124.5C 114.753,130.931 128.253,124.931 136,106.5C 137.141,92.7323 137.641,78.899 137.5,65C 137.333,52.1667 137.167,39.3333 137,26.5C 136.338,24.1873 135.838,21.854 135.5,19.5 Z"/></g>
<g><path style="opacity:0.757" fill="#b7b8f3" d="M 81.5,22.5 C 81.573,24.0269 80.9063,25.0269 79.5,25.5C 79.427,23.9731 80.0937,22.9731 81.5,22.5 Z"/></g>
<g><path style="opacity:0.671" fill="#bbbef1" d="M 56.5,20.5 C 57.9217,20.7086 59.255,21.2086 60.5,22C 63.6524,26.9791 67.3191,31.4791 71.5,35.5C 71.2172,36.2891 70.7172,36.9558 70,37.5C 64.9055,32.2463 60.4055,26.5796 56.5,20.5 Z"/></g>
<g><path style="opacity:0.09" fill="#ebe2ec" d="M 148.5,47.5 C 149.167,47.5 149.5,47.8333 149.5,48.5C 148.833,53.1667 148.167,57.8333 147.5,62.5C 147.179,57.3054 147.513,52.3054 148.5,47.5 Z"/></g>
<g><path style="opacity:0.419" fill="#d9d5ee" d="M 390.5,58.5 C 390.666,68.8387 390.5,79.172 390,89.5C 388.628,88.0899 387.795,86.4233 387.5,84.5C 388.222,84.0825 388.722,83.4158 389,82.5C 389.171,74.3228 389.671,66.3228 390.5,58.5 Z"/></g>
<g><path style="opacity:0.995" fill="#babdf1" d="M 333.5,109.5 C 329.774,115.273 326.274,121.273 323,127.5C 310.465,138.463 297.298,139.297 283.5,130C 282.035,128.226 280.702,126.392 279.5,124.5C 302.781,130.013 316.781,121.18 321.5,98C 319.952,91.886 319.119,85.7194 319,79.5C 324.646,89.1246 329.479,99.1246 333.5,109.5 Z"/></g>
<g><path style="opacity:0.985" fill="#b6baf1" d="M 86.5,114.5 C 82.1036,115.85 77.7703,115.684 73.5,114C 70.1667,112 66.8333,110 63.5,108C 61.2663,106.362 59.933,104.195 59.5,101.5C 65.2833,104.64 71.2833,105.14 77.5,103C 85.9619,96.8722 93.4619,89.7055 100,81.5C 100.5,82 101,82.5 101.5,83C 96,90.5 90.5,98 85,105.5C 84.2069,108.741 84.7069,111.741 86.5,114.5 Z"/></g>
<g><path style="opacity:0.993" fill="#bbbef1" d="M 56.5,100.5 C 56.0618,100.435 55.7284,100.601 55.5,101C 70.2006,118.566 66.5339,130.566 44.5,137C 32.5837,138.531 23.2503,134.364 16.5,124.5C 23.3862,126.325 30.3862,126.825 37.5,126C 48.3088,123.84 54.1421,117.34 55,106.5C 49.8891,98.3898 44.3891,90.5565 38.5,83C 39,82.5 39.5,82 40,81.5C 44.9627,88.2963 50.4627,94.6296 56.5,100.5 Z"/></g>
<g><path style="opacity:0.882" fill="#abacf5" d="M 399.5,118.5 C 401.027,118.427 402.027,119.094 402.5,120.5C 400.973,120.573 399.973,119.906 399.5,118.5 Z"/></g>
<g><path style="opacity:0.741" fill="#b9b8f3" d="M 12.5,121.5 C 14.0269,121.427 15.0269,122.094 15.5,123.5C 13.9731,123.573 12.9731,122.906 12.5,121.5 Z"/></g>
<g><path style="opacity:0.98" fill="#abacf5" d="M 275.5,121.5 C 277.404,121.738 278.738,122.738 279.5,124.5C 277.596,124.262 276.262,123.262 275.5,121.5 Z"/></g>
<g><path style="opacity:0.894" fill="#afb0f4" d="M 92.5,122.5 C 94.0269,122.427 95.0269,123.094 95.5,124.5C 93.9731,124.573 92.9731,123.906 92.5,122.5 Z"/></g>
<g><path style="opacity:0.549" fill="#b8b9f3" d="M 186.5,121.5 C 188.027,121.427 189.027,122.094 189.5,123.5C 187.973,123.573 186.973,122.906 186.5,121.5 Z"/></g>
<g><path style="opacity:0.553" fill="#babaf2" d="M 403.5,121.5 C 405.027,121.427 406.027,122.094 406.5,123.5C 404.973,123.573 403.973,122.906 403.5,121.5 Z"/></g>
<g><path style="opacity:0.011" fill="#fcf6f2" d="M 459.5,134.5 C 459.5,135.833 459.5,137.167 459.5,138.5C 458.167,137.167 458.167,135.833 459.5,134.5 Z"/></g>
</svg>
